<svg width="286" height="211" viewBox="0 0 286 211" fill="none" xmlns="http://www.w3.org/2000/svg">
<g opacity="0.5">
<path d="M257.343 196.569H238.398V196.712H257.343V196.569Z" fill="#EBEBEB"/>
<path d="M189.458 198.126H184.487V198.269H189.458V198.126Z" fill="#EBEBEB"/>
<path d="M237.826 191.26H226.849V191.403H237.826V191.26Z" fill="#EBEBEB"/>
<path d="M54.7118 192.221H30.0071V192.364H54.7118V192.221Z" fill="#EBEBEB"/>
<path d="M63.4291 192.221H59.8083V192.364H63.4291V192.221Z" fill="#EBEBEB"/>
<path d="M128.786 194.635H75.2008V194.778H128.786V194.635Z" fill="#EBEBEB"/>
<path d="M286 187.363H0V187.506H286V187.363Z" fill="#EBEBEB"/>
<path d="M44.8906 163.274C44.8448 163.234 44.8162 163.177 44.8162 163.114C44.7647 161.992 44.0897 150.966 37.3401 143.419C31.6316 137.033 37.4889 141.588 40.0286 143.642C40.2345 143.808 40.5147 143.568 40.3775 143.339C38.5871 140.312 34.0912 132.307 35.6528 130.745C37.1285 129.269 40.1658 136.581 41.5272 140.129C41.6244 140.386 42.0077 140.295 41.9791 140.02C41.5901 136.267 41.0181 128.416 43.1345 128.691C45.228 128.965 44.6446 139.333 44.227 144.409C44.2042 144.689 44.6046 144.764 44.6846 144.495C45.6284 141.37 47.4245 136.759 49.5352 137.977C52.6583 139.785 44.9363 146.142 45.4225 153.043C45.8973 159.806 46.0231 164.241 44.8906 163.268V163.274Z" fill="#F5F5F5"/>
<path d="M48.1052 165.225C48.1052 165.225 48.1453 165.116 48.2082 165.07C55.9817 159.692 54.0655 147.842 51.7088 140.495C51.1826 138.859 50.6335 137.165 50.5534 135.42C52.2065 137.399 53.2017 140.003 54.3057 142.36C54.4487 142.669 54.8148 142.561 54.7633 142.223C54.1741 138.435 53.9396 126.528 57.3773 126.74C58.9332 126.837 57.2 137.193 57.1371 139.305C57.1257 139.642 57.5489 139.774 57.6347 139.459C58.6529 135.786 65.6713 128.193 66.9469 129.709C67.4903 130.356 64.207 133.921 63.0916 135.597C60.9981 138.738 59.5567 142.246 58.2239 145.753C58.1038 146.062 58.487 146.389 58.6529 146.131C59.8941 144.168 64.5388 139.448 66.1118 141.788C67.2501 143.482 64.2127 145.942 62.7141 147.396C60.0543 149.976 57.5261 152.826 56.2333 156.259C55.3582 158.599 49.0547 166.484 48.1167 165.225H48.1052Z" fill="#F5F5F5"/>
<path d="M49.0547 164.086C49.1062 164.035 49.1348 163.96 49.1348 163.886C49.1233 162.519 49.2206 149.095 56.914 139.482C63.4233 131.351 56.6165 137.268 53.665 139.934C53.4305 140.146 53.0701 139.871 53.2188 139.591C55.1922 135.797 60.1229 125.778 58.1266 123.987C56.239 122.294 53.0301 131.374 51.6115 135.769C51.5086 136.089 51.0395 136.003 51.051 135.666C51.2798 131.083 51.4514 121.516 48.906 121.99C46.3834 122.46 47.7734 135.013 48.6142 141.147C48.66 141.485 48.1795 141.605 48.0651 141.285C46.7152 137.554 44.227 132.072 41.7445 133.692C38.0723 136.095 47.8649 143.304 47.7334 151.71C47.6018 159.949 47.7448 165.345 49.0547 164.086Z" fill="#E6E6E6"/>
<path d="M54.2542 184.662C56.588 175.965 58.1209 163.709 58.1209 160.693H40.7207C40.7207 163.709 42.2594 175.965 44.5874 184.662C45.0164 186.259 46.4693 187.369 48.1224 187.369H50.7078C52.3609 187.369 53.8138 186.259 54.2428 184.662H54.2542Z" fill="#E6E6E6"/>
<path d="M244.622 186.808H228.96C227.055 186.808 225.488 185.32 225.385 183.421L223.469 147.493H250.107L248.191 183.421C248.088 185.32 246.521 186.808 244.616 186.808H244.622Z" fill="#E6E6E6"/>
<path d="M240.4 149.696H233.182V156.917H240.4V149.696Z" fill="#FAFAFA"/>
<path d="M240.4 158.696H233.182V165.917H240.4V158.696Z" fill="#FAFAFA"/>
<path d="M240.4 167.697H233.182V174.918H240.4V167.697Z" fill="#FAFAFA"/>
<path d="M240.4 176.692H233.182V183.913H240.4V176.692Z" fill="#FAFAFA"/>
<path d="M250.919 144.878H222.657C222.262 144.878 221.942 145.198 221.942 145.593V146.783C221.942 147.178 222.262 147.499 222.657 147.499H250.919C251.314 147.499 251.634 147.178 251.634 146.783V145.593C251.634 145.198 251.314 144.878 250.919 144.878Z" fill="#F5F5F5"/>
<path d="M246.452 176.692H242.253V183.913H245.92C246.017 183.73 246.086 183.529 246.097 183.306L246.452 176.692Z" fill="#FAFAFA"/>
<path d="M231.323 176.692H227.124L227.479 183.306C227.49 183.529 227.559 183.73 227.656 183.913H231.323V176.692Z" fill="#FAFAFA"/>
<path d="M231.323 167.697H226.649L227.033 174.918H231.323V167.697Z" fill="#FAFAFA"/>
<path d="M231.323 158.696H226.169L226.552 165.917H231.323V158.696Z" fill="#FAFAFA"/>
<path d="M231.323 149.696H225.688L226.072 156.917H231.323V149.696Z" fill="#FAFAFA"/>
<path d="M242.259 167.697V174.918H246.549L246.932 167.697H242.259Z" fill="#FAFAFA"/>
<path d="M242.259 158.696V165.917H247.03L247.413 158.696H242.259Z" fill="#FAFAFA"/>
<path d="M242.259 149.696V156.917H247.51L247.893 149.696H242.259Z" fill="#FAFAFA"/>
<path d="M140.243 211C201.494 211 251.148 208.1 251.148 204.523C251.148 200.946 201.494 198.046 140.243 198.046C78.9918 198.046 29.3379 200.946 29.3379 204.523C29.3379 208.1 78.9918 211 140.243 211Z" fill="#F5F5F5"/>
<path d="M226.804 106.724C222.754 106.724 217.972 99.3261 213.751 92.7917C210.982 88.5117 208.294 84.3519 205.434 81.3479H214.9V76.7704H203.295C205.371 74.4073 207.333 71.3633 209.352 68.2448C212.521 63.3412 216.468 57.2359 219.482 57.2359H228.36V52.6584H219.482C213.974 52.6584 209.861 59.0212 205.508 65.7615C202.339 70.6652 198.393 76.7704 195.378 76.7704H94.054C91.0396 76.7704 87.0928 70.6652 83.9239 65.7615C79.571 59.0212 75.4583 52.6584 69.9499 52.6584H61.0725V57.2359H69.9499C72.9644 57.2359 76.9112 63.3412 80.0801 68.2448C82.0992 71.3633 84.0612 74.4073 86.1375 76.7704H45.0107V81.3479H91.1483C88.2883 84.3577 85.5999 88.5117 82.8314 92.7917C78.61 99.3204 73.8281 106.724 69.7783 106.724H52.9501V111.302H69.7783C76.3163 111.302 81.3499 103.52 86.6752 95.2807C90.8966 88.7521 95.6785 81.3479 99.7283 81.3479H196.865C200.915 81.3479 205.697 88.7521 209.918 95.2807C215.244 103.52 220.272 111.302 226.809 111.302H243.638V106.724H226.809H226.804Z" fill="#263238"/>
<g opacity="0.4">
<path d="M201.184 80.2551L200.938 80.6098C204.307 82.9329 207.499 87.6248 211.017 93.0606L211.377 92.826C207.831 87.3502 204.616 82.6239 201.184 80.2551Z" fill="white"/>
<path d="M215.839 99.5664L215.49 99.8125C217.463 102.633 219.105 104.625 220.66 106.084L220.952 105.769C219.419 104.333 217.795 102.359 215.839 99.5664Z" fill="white"/>
<path d="M212.115 94.7486C212.853 95.893 213.596 97.0316 214.34 98.1359L214.694 97.8956C213.951 96.7913 213.213 95.6526 212.475 94.514L212.115 94.7486Z" fill="white"/>
<path d="M222.479 107.045L222.228 107.394C223.812 108.544 225.311 109.099 226.798 109.099H238.147V108.67H226.798C225.402 108.67 223.99 108.138 222.479 107.045Z" fill="white"/>
<path d="M243.632 108.67H240.2V109.099H243.632V108.67Z" fill="white"/>
<path d="M48.437 78.7159H45.005V79.145H48.437V78.7159Z" fill="white"/>
<path d="M65.0708 78.7159H51.7604V79.145H65.0708V78.7159Z" fill="white"/>
<path d="M68.3998 78.7159V79.145H95.0149V78.7159H94.0483C93.0415 78.7159 92.0348 78.3726 90.9595 77.6688L90.7249 78.0292C91.1597 78.3153 91.5829 78.5442 92.0062 78.7216H68.3998V78.7159Z" fill="white"/>
<path d="M178.195 78.7159H164.885V79.145H178.195V78.7159Z" fill="white"/>
<path d="M208.139 79.145V78.7159H197.42C197.843 78.5385 198.267 78.3096 198.701 78.0235L198.467 77.6631C197.392 78.3668 196.385 78.7102 195.378 78.7102H181.524V79.1393H196.86C197.632 79.1393 198.421 79.3052 199.222 79.6428L199.388 79.248C199.291 79.208 199.199 79.1794 199.102 79.145H208.145H208.139Z" fill="white"/>
<path d="M161.556 78.7159H154.903V79.145H161.556V78.7159Z" fill="white"/>
<path d="M151.574 78.7159H124.959V79.145H151.574V78.7159Z" fill="white"/>
<path d="M214.901 78.7159H211.469V79.145H214.901V78.7159Z" fill="white"/>
<path d="M206.652 68.4737L206.292 68.2391C204.507 70.9799 202.431 74.0697 200.343 76.1238L200.646 76.4328C202.763 74.3501 204.856 71.2374 206.652 68.4794V68.4737Z" fill="white"/>
<path d="M219.482 55.033H222.445V54.6039H219.482C215.112 54.6039 211.142 60.7377 207.642 66.1506L208.002 66.3852C211.446 61.0639 215.347 55.033 219.482 55.033Z" fill="white"/>
<path d="M228.36 54.6039H224.928V55.033H228.36V54.6039Z" fill="white"/>
<path d="M89.0833 76.1181C86.9955 74.0697 84.9192 70.9742 83.1345 68.2334L82.7742 68.468C84.5703 71.2259 86.6638 74.3386 88.7802 76.4214L89.0833 76.1124V76.1181Z" fill="white"/>
<path d="M81.4242 66.3852L81.7846 66.1506C78.2839 60.7377 74.3142 54.6039 69.9442 54.6039H66.9812V55.033H69.9442C74.0797 55.033 77.9808 61.0639 81.4242 66.3852Z" fill="white"/>
<path d="M64.493 54.6039H61.061V55.033H64.493V54.6039Z" fill="white"/>
<path d="M108.325 78.7159H107.313V79.145H108.325H110.745H121.636V78.7159H110.745H108.325Z" fill="white"/>
<path d="M85.1937 92.826L85.5541 93.0606C89.0719 87.6248 92.2636 82.9386 95.6327 80.6098L95.3868 80.2551C91.949 82.6239 88.7344 87.3502 85.1937 92.826Z" fill="white"/>
<path d="M99.7169 78.7159H98.3441V78.8818C97.9608 78.9676 97.5776 79.0878 97.1943 79.248L97.3602 79.6428C98.1553 79.3109 98.9504 79.1393 99.7226 79.1393H105.294V78.7101H99.7226L99.7169 78.7159Z" fill="white"/>
<path d="M69.7726 108.67H58.4241V109.099H69.7726C71.2655 109.099 72.7584 108.538 74.3428 107.394L74.0912 107.045C72.5811 108.138 71.1682 108.67 69.7726 108.67Z" fill="white"/>
<path d="M81.8761 97.9013L82.2307 98.1417C82.9743 97.0373 83.7122 95.8987 84.4558 94.7543L84.0955 94.5197C83.3576 95.6641 82.6197 96.797 81.8761 97.9013Z" fill="white"/>
<path d="M75.6241 105.769L75.9159 106.084C77.4717 104.625 79.1133 102.633 81.0867 99.8125L80.7378 99.5664C78.7816 102.359 77.1628 104.333 75.6241 105.769Z" fill="white"/>
<path d="M56.3763 108.67H52.9443V109.099H56.3763V108.67Z" fill="white"/>
</g>
<path d="M69.967 97.9528H65.7743C64.7847 97.9528 63.8638 98.4506 63.3204 99.2689L62.7083 100.196C62.2107 100.951 61.3641 101.403 60.4604 101.403H49.6439C48.6715 101.403 47.8878 102.193 47.8878 103.16V120.062H72.2836V101.403L72.0663 99.7781C71.929 98.731 71.0309 97.9471 69.9785 97.9471L69.967 97.9528Z" fill="#B66DFF"/>
<path opacity="0.2" d="M69.967 97.9528H65.7743C64.7847 97.9528 63.8638 98.4506 63.3204 99.2689L62.7083 100.196C62.2107 100.951 61.3641 101.403 60.4604 101.403H49.6439C48.6715 101.403 47.8878 102.193 47.8878 103.16V120.062H72.2836V101.403L72.0663 99.7781C71.929 98.731 71.0309 97.9471 69.9785 97.9471L69.967 97.9528Z" fill="white"/>
<path d="M70.4475 103.543H49.7125V117.728H70.4475V103.543Z" fill="#263238"/>
<path opacity="0.9" d="M70.4475 103.543H49.7125V117.728H70.4475V103.543Z" fill="white"/>
<path d="M72.2779 120.068H47.8821L44.3014 107.033C44.0326 106.044 44.7705 105.071 45.7943 105.071H65.7857C67.1871 105.071 68.4112 106.009 68.783 107.354L72.2722 120.068H72.2779Z" fill="#B66DFF"/>
<path opacity="0.6" d="M72.2779 120.068H47.8821L44.3014 107.033C44.0326 106.044 44.7705 105.071 45.7943 105.071H65.7857C67.1871 105.071 68.4112 106.009 68.783 107.354L72.2722 120.068H72.2779Z" fill="white"/>
<path d="M43.0144 35.8247H47.539C48.6029 35.8247 49.5982 36.3568 50.1873 37.2494L50.8508 38.2508C51.3885 39.0633 52.3037 39.5553 53.2761 39.5553H64.9506C65.9974 39.5553 66.844 40.4022 66.844 41.4493V58.1343C66.844 58.9926 66.1518 59.6849 65.2938 59.6849H42.0764C41.2241 59.6849 40.5262 58.9926 40.5262 58.1343V39.5553L40.7608 37.8044C40.9095 36.6715 41.8762 35.8247 43.0144 35.8247Z" fill="#B66DFF"/>
<path opacity="0.6" d="M43.0144 35.8247H47.539C48.6029 35.8247 49.5982 36.3568 50.1873 37.2494L50.8508 38.2508C51.3885 39.0633 52.3037 39.5553 53.2761 39.5553H64.9506C65.9974 39.5553 66.844 40.4022 66.844 41.4493V58.1343C66.844 58.9926 66.1518 59.6849 65.2938 59.6849H42.0764C41.2241 59.6849 40.5262 58.9926 40.5262 58.1343V39.5553L40.7608 37.8044C40.9095 36.6715 41.8762 35.8247 43.0144 35.8247Z" fill="white"/>
<path d="M62.1135 39.5553H59.774V55.7654H62.1135V39.5553Z" fill="#263238"/>
<path opacity="0.5" d="M62.1135 39.5553H59.774V55.7654H62.1135V39.5553Z" fill="white"/>
<path d="M61.0153 40.3221H59.2192V41.6553H61.0153V40.3221Z" fill="#263238"/>
<path d="M61.0153 43.2288H59.2192V44.562H61.0153V43.2288Z" fill="#263238"/>
<path d="M61.0153 46.1355H59.2192V47.4687H61.0153V46.1355Z" fill="#263238"/>
<path d="M61.0153 49.0479H59.2192V50.3811H61.0153V49.0479Z" fill="#263238"/>
<path d="M61.0153 51.9547H59.2192V53.2878H61.0153V51.9547Z" fill="#263238"/>
<path opacity="0.7" d="M61.0153 40.3221H59.2192V41.6553H61.0153V40.3221Z" fill="white"/>
<path opacity="0.7" d="M61.0153 43.2288H59.2192V44.562H61.0153V43.2288Z" fill="white"/>
<path opacity="0.7" d="M61.0153 46.1355H59.2192V47.4687H61.0153V46.1355Z" fill="white"/>
<path opacity="0.7" d="M61.0153 49.0479H59.2192V50.3811H61.0153V49.0479Z" fill="white"/>
<path opacity="0.7" d="M61.0153 51.9547H59.2192V53.2878H61.0153V51.9547Z" fill="white"/>
<path d="M62.7542 41.661H60.9581V42.9942H62.7542V41.661Z" fill="#263238"/>
<path d="M62.7542 44.5677H60.9581V45.9009H62.7542V44.5677Z" fill="#263238"/>
<path d="M62.7542 47.4744H60.9581V48.8076H62.7542V47.4744Z" fill="#263238"/>
<path d="M62.7542 50.3811H60.9581V51.7143H62.7542V50.3811Z" fill="#263238"/>
<path d="M62.7542 53.2878H60.9581V54.621H62.7542V53.2878Z" fill="#263238"/>
<g opacity="0.8">
<path d="M62.7542 41.661H60.9581V42.9942H62.7542V41.661Z" fill="white"/>
<path d="M62.7542 44.5677H60.9581V45.9009H62.7542V44.5677Z" fill="white"/>
<path d="M62.7542 47.4744H60.9581V48.8076H62.7542V47.4744Z" fill="white"/>
<path d="M62.7542 50.3811H60.9581V51.7143H62.7542V50.3811Z" fill="white"/>
<path d="M62.7542 53.2878H60.9581V54.621H62.7542V53.2878Z" fill="white"/>
</g>
<path d="M58.4413 54.621V59.9367H63.5836V54.621H58.4413ZM62.7599 58.9754H59.3508V55.588H62.7599V58.9754Z" fill="#263238"/>
<path opacity="0.7" d="M58.4413 54.621V59.9367H63.5836V54.621H58.4413ZM62.7599 58.9754H59.3508V55.588H62.7599V58.9754Z" fill="white"/>
<path d="M59.8884 66.4882H36.0417V71.8038L41.3499 77.1138H65.1966V71.7924L59.8884 66.4882Z" fill="#B66DFF"/>
<path opacity="0.3" d="M59.8884 66.4882H36.0417V71.8038L41.3499 77.1138H65.1966V71.7924L59.8884 66.4882Z" fill="white"/>
<path d="M65.1965 77.108H41.3499V82.4237H65.1965V77.108Z" fill="#B66DFF"/>
<path opacity="0.3" d="M65.1965 77.108H41.3499V82.4237H65.1965V77.108Z" fill="white"/>
<path d="M65.1965 82.4179H41.3499V87.7336H65.1965V82.4179Z" fill="#B66DFF"/>
<path opacity="0.6" d="M65.1965 82.4179H41.3499V87.7336H65.1965V82.4179Z" fill="white"/>
<path d="M65.1965 71.7924H41.3499V77.108H65.1965V71.7924Z" fill="#B66DFF"/>
<path d="M50.3417 87.7393H55.6956V71.7924L50.3875 66.4882H45.0336L50.3417 71.7924V87.7393Z" fill="#B66DFF"/>
<path opacity="0.2" d="M50.3417 87.7393H55.6956V71.7924L50.3875 66.4882H45.0336L50.3417 71.7924V87.7393Z" fill="black"/>
<path d="M48.9175 75.5917V83.94H56.9941V75.5917H48.9175ZM55.6957 82.4237H50.3418V77.108H55.6957V82.4237Z" fill="#263238"/>
<path opacity="0.5" d="M48.9175 75.5917V83.94H56.9941V75.5917H48.9175ZM55.6957 82.4237H50.3418V77.108H55.6957V82.4237Z" fill="white"/>
<path d="M36.0417 66.4882V71.8038L41.3499 77.1138V71.7924L36.0417 66.4882Z" fill="#263238"/>
<path opacity="0.5" d="M36.0417 66.4882V71.8038L41.3499 77.1138V71.7924L36.0417 66.4882Z" fill="white"/>
<path d="M36.0417 71.7981V77.1138L41.3499 82.4237V77.108L36.0417 71.7981Z" fill="#263238"/>
<path opacity="0.6" d="M36.0417 71.7981V77.1138L41.3499 82.4237V77.108L36.0417 71.7981Z" fill="white"/>
<path d="M36.0417 77.1137V82.4294L41.3499 87.7393V82.4179L36.0417 77.1137Z" fill="#263238"/>
<path opacity="0.8" d="M36.0417 77.1137V82.4294L41.3499 87.7393V82.4179L36.0417 77.1137Z" fill="white"/>
<path d="M248.214 90.9435H222.211V125.95H248.214V90.9435Z" fill="#B66DFF"/>
<path opacity="0.7" d="M248.214 90.9435H222.211V125.95H248.214V90.9435Z" fill="white"/>
<path opacity="0.7" d="M246.515 92.6429H223.909V101.758H246.515V92.6429Z" fill="white"/>
<path opacity="0.7" d="M246.515 103.886H223.909V113.001H246.515V103.886Z" fill="white"/>
<path d="M246.515 97.558L244.404 94.9832L241.802 98.1588L239.199 94.4167L236.436 97.1861L233.725 95.6584L231.254 99.7552L228.789 95.6584L225.991 97.2376L223.909 96.0646V97.0373L225.991 98.216L228.491 96.8027L231.254 101.403L234.022 96.8027L236.579 98.2389L239.079 95.7385L241.744 99.5664L244.404 96.3221L246.515 98.8969V97.558Z" fill="#B66DFF"/>
<path opacity="0.5" d="M246.515 97.558L244.404 94.9832L241.802 98.1588L239.199 94.4167L236.436 97.1861L233.725 95.6584L231.254 99.7552L228.789 95.6584L225.991 97.2376L223.909 96.0646V97.0373L225.991 98.216L228.491 96.8027L231.254 101.403L234.022 96.8027L236.579 98.2389L239.079 95.7385L241.744 99.5664L244.404 96.3221L246.515 98.8969V97.558Z" fill="white"/>
<path d="M246.515 106.656L244.387 107.857L241.59 106.272L239.125 110.369L236.659 106.272L233.948 107.8L231.185 105.037L228.583 108.779L225.974 105.603L223.909 108.121V109.46L225.974 106.942L228.634 110.186L231.3 106.353L233.799 108.853L236.356 107.417L239.125 112.017L241.893 107.423L244.387 108.83L246.515 107.629V106.656Z" fill="#B66DFF"/>
<path opacity="0.5" d="M246.515 106.656L244.387 107.857L241.59 106.272L239.125 110.369L236.659 106.272L233.948 107.8L231.185 105.037L228.583 108.779L225.974 105.603L223.909 108.121V109.46L225.974 106.942L228.634 110.186L231.3 106.353L233.799 108.853L236.356 107.417L239.125 112.017L241.893 107.423L244.387 108.83L246.515 107.629V106.656Z" fill="white"/>
<path d="M233.244 115.559H246.2C246.749 115.559 246.749 114.712 246.2 114.712H233.244C232.695 114.712 232.695 115.559 233.244 115.559Z" fill="#263238"/>
<path d="M233.244 117.871H244.501C245.051 117.871 245.051 117.018 244.501 117.018H233.244C232.695 117.018 232.695 117.871 233.244 117.871Z" fill="#263238"/>
<path d="M233.244 120.188H244.501C245.051 120.188 245.051 119.336 244.501 119.336H233.244C232.695 119.336 232.695 120.188 233.244 120.188Z" fill="#263238"/>
<path d="M233.244 122.5H245.068C245.617 122.5 245.617 121.647 245.068 121.647H233.244C232.695 121.647 232.695 122.5 233.244 122.5Z" fill="#263238"/>
<g opacity="0.4">
<path d="M233.244 115.559H246.2C246.749 115.559 246.749 114.712 246.2 114.712H233.244C232.695 114.712 232.695 115.559 233.244 115.559Z" fill="white"/>
<path d="M233.244 117.871H244.501C245.051 117.871 245.051 117.018 244.501 117.018H233.244C232.695 117.018 232.695 117.871 233.244 117.871Z" fill="white"/>
<path d="M233.244 120.188H244.501C245.051 120.188 245.051 119.336 244.501 119.336H233.244C232.695 119.336 232.695 120.188 233.244 120.188Z" fill="white"/>
<path d="M233.244 122.5H245.068C245.617 122.5 245.617 121.647 245.068 121.647H233.244C232.695 121.647 232.695 122.5 233.244 122.5Z" fill="white"/>
</g>
<path d="M246.881 37.0949H223.24V68.92H246.881V37.0949Z" fill="#B66DFF"/>
<path opacity="0.6" d="M246.881 37.0949H223.24V68.92H246.881V37.0949Z" fill="white"/>
<path opacity="0.7" d="M245.337 38.6398H224.785V46.9251H245.337V38.6398Z" fill="white"/>
<path d="M233.336 49.4141H245.113C245.611 49.4141 245.611 48.6417 245.113 48.6417H233.336C232.838 48.6417 232.838 49.4141 233.336 49.4141Z" fill="#263238"/>
<path d="M233.336 51.5141H243.569C244.067 51.5141 244.067 50.7416 243.569 50.7416H233.336C232.838 50.7416 232.838 51.5141 233.336 51.5141Z" fill="#263238"/>
<path d="M233.336 53.6197H243.569C244.067 53.6197 244.067 52.8473 243.569 52.8473H233.336C232.838 52.8473 232.838 53.6197 233.336 53.6197Z" fill="#263238"/>
<path d="M233.336 55.7197H244.084C244.581 55.7197 244.581 54.9472 244.084 54.9472H233.336C232.838 54.9472 232.838 55.7197 233.336 55.7197Z" fill="#263238"/>
<path d="M233.336 57.8253H242.025C242.522 57.8253 242.522 57.0529 242.025 57.0529H233.336C232.838 57.0529 232.838 57.8253 233.336 57.8253Z" fill="#263238"/>
<path d="M233.336 59.9252H245.113C245.611 59.9252 245.611 59.1528 245.113 59.1528H233.336C232.838 59.1528 232.838 59.9252 233.336 59.9252Z" fill="#263238"/>
<path d="M233.336 62.0309H243.569C244.067 62.0309 244.067 61.2584 243.569 61.2584H233.336C232.838 61.2584 232.838 62.0309 233.336 62.0309Z" fill="#263238"/>
<path d="M233.336 64.1308H243.569C244.067 64.1308 244.067 63.3584 243.569 63.3584H233.336C232.838 63.3584 232.838 64.1308 233.336 64.1308Z" fill="#263238"/>
<path d="M233.336 66.2365H244.084C244.581 66.2365 244.581 65.464 244.084 65.464H233.336C232.838 65.464 232.838 66.2365 233.336 66.2365Z" fill="#263238"/>
<g opacity="0.4">
<path d="M233.336 49.4141H245.113C245.611 49.4141 245.611 48.6417 245.113 48.6417H233.336C232.838 48.6417 232.838 49.4141 233.336 49.4141Z" fill="white"/>
</g>
<g opacity="0.4">
<path d="M233.336 51.5141H243.569C244.067 51.5141 244.067 50.7416 243.569 50.7416H233.336C232.838 50.7416 232.838 51.5141 233.336 51.5141Z" fill="white"/>
</g>
<g opacity="0.4">
<path d="M233.336 53.6197H243.569C244.067 53.6197 244.067 52.8473 243.569 52.8473H233.336C232.838 52.8473 232.838 53.6197 233.336 53.6197Z" fill="white"/>
</g>
<g opacity="0.4">
<path d="M233.336 55.7197H244.084C244.581 55.7197 244.581 54.9472 244.084 54.9472H233.336C232.838 54.9472 232.838 55.7197 233.336 55.7197Z" fill="white"/>
</g>
<g opacity="0.4">
<path d="M233.336 57.8253H242.025C242.522 57.8253 242.522 57.0529 242.025 57.0529H233.336C232.838 57.0529 232.838 57.8253 233.336 57.8253Z" fill="white"/>
</g>
<g opacity="0.4">
<path d="M233.336 59.9252H245.113C245.611 59.9252 245.611 59.1528 245.113 59.1528H233.336C232.838 59.1528 232.838 59.9252 233.336 59.9252Z" fill="white"/>
</g>
<g opacity="0.4">
<path d="M233.336 62.0309H243.569C244.067 62.0309 244.067 61.2584 243.569 61.2584H233.336C232.838 61.2584 232.838 62.0309 233.336 62.0309Z" fill="white"/>
</g>
<g opacity="0.4">
<path d="M233.336 64.1308H243.569C244.067 64.1308 244.067 63.3584 243.569 63.3584H233.336C232.838 63.3584 232.838 64.1308 233.336 64.1308Z" fill="white"/>
</g>
<g opacity="0.4">
<path d="M233.336 66.2365H244.084C244.581 66.2365 244.581 65.464 244.084 65.464H233.336C232.838 65.464 232.838 66.2365 233.336 66.2365Z" fill="white"/>
</g>
<path d="M230.579 49.0251H224.785V54.8213H230.579V49.0251Z" fill="#B66DFF"/>
<path opacity="0.3" d="M230.579 49.0251H224.785V54.8213H230.579V49.0251Z" fill="white"/>
<path d="M231.139 43.0342H229.572V46.1698H231.139V43.0342Z" fill="#B66DFF"/>
<path d="M234.28 41.4664H232.712V46.1698H234.28V41.4664Z" fill="#B66DFF"/>
<path d="M237.414 42.2503H235.847V46.1698H237.414V42.2503Z" fill="#B66DFF"/>
<path d="M240.549 39.8987H238.982V46.1755H240.549V39.8987Z" fill="#B66DFF"/>
<path d="M235.304 63.5357H211.663V95.3608H235.304V63.5357Z" fill="#B66DFF"/>
<path opacity="0.8" d="M235.304 63.5357H211.663V95.3608H235.304V63.5357Z" fill="white"/>
<path d="M221.759 66.946H233.536C234.034 66.946 234.034 66.1735 233.536 66.1735H221.759C221.261 66.1735 221.261 66.946 221.759 66.946Z" fill="#263238"/>
<path d="M221.759 69.0459H231.992C232.489 69.0459 232.489 68.2734 231.992 68.2734H221.759C221.261 68.2734 221.261 69.0459 221.759 69.0459Z" fill="#263238"/>
<path d="M221.759 71.1515H231.992C232.489 71.1515 232.489 70.3791 231.992 70.3791H221.759C221.261 70.3791 221.261 71.1515 221.759 71.1515Z" fill="#263238"/>
<path d="M221.759 73.2515H232.506C233.004 73.2515 233.004 72.479 232.506 72.479H221.759C221.261 72.479 221.261 73.2515 221.759 73.2515Z" fill="#263238"/>
<path d="M221.759 75.3571H230.447C230.945 75.3571 230.945 74.5847 230.447 74.5847H221.759C221.261 74.5847 221.261 75.3571 221.759 75.3571Z" fill="#263238"/>
<path d="M221.759 77.457H233.536C234.034 77.457 234.034 76.6846 233.536 76.6846H221.759C221.261 76.6846 221.261 77.457 221.759 77.457Z" fill="#263238"/>
<path d="M221.759 79.5627H231.992C232.489 79.5627 232.489 78.7903 231.992 78.7903H221.759C221.261 78.7903 221.261 79.5627 221.759 79.5627Z" fill="#263238"/>
<path d="M221.759 81.6627H231.992C232.489 81.6627 232.489 80.8902 231.992 80.8902H221.759C221.261 80.8902 221.261 81.6627 221.759 81.6627Z" fill="#263238"/>
<path d="M221.759 85.874H230.447C230.945 85.874 230.945 85.1015 230.447 85.1015H221.759C221.261 85.1015 221.261 85.874 221.759 85.874Z" fill="#263238"/>
<path d="M221.759 87.9739H233.536C234.034 87.9739 234.034 87.2014 233.536 87.2014H221.759C221.261 87.2014 221.261 87.9739 221.759 87.9739Z" fill="#263238"/>
<path d="M221.759 90.0795H231.992C232.489 90.0795 232.489 89.3071 231.992 89.3071H221.759C221.261 89.3071 221.261 90.0795 221.759 90.0795Z" fill="#263238"/>
<path d="M221.759 92.1795H231.992C232.489 92.1795 232.489 91.407 231.992 91.407H221.759C221.261 91.407 221.261 92.1795 221.759 92.1795Z" fill="#263238"/>
<path d="M221.759 83.7683H232.506C233.004 83.7683 233.004 82.9958 232.506 82.9958H221.759C221.261 82.9958 221.261 83.7683 221.759 83.7683Z" fill="#263238"/>
<g opacity="0.4">
<path d="M221.759 66.946H233.536C234.034 66.946 234.034 66.1735 233.536 66.1735H221.759C221.261 66.1735 221.261 66.946 221.759 66.946Z" fill="white"/>
<path d="M221.759 69.0459H231.992C232.489 69.0459 232.489 68.2734 231.992 68.2734H221.759C221.261 68.2734 221.261 69.0459 221.759 69.0459Z" fill="white"/>
<path d="M221.759 71.1515H231.992C232.489 71.1515 232.489 70.3791 231.992 70.3791H221.759C221.261 70.3791 221.261 71.1515 221.759 71.1515Z" fill="white"/>
<path d="M221.759 73.2515H232.506C233.004 73.2515 233.004 72.479 232.506 72.479H221.759C221.261 72.479 221.261 73.2515 221.759 73.2515Z" fill="white"/>
<path d="M221.759 75.3571H230.447C230.945 75.3571 230.945 74.5847 230.447 74.5847H221.759C221.261 74.5847 221.261 75.3571 221.759 75.3571Z" fill="white"/>
<path d="M221.759 77.457H233.536C234.034 77.457 234.034 76.6846 233.536 76.6846H221.759C221.261 76.6846 221.261 77.457 221.759 77.457Z" fill="white"/>
<path d="M221.759 79.5627H231.992C232.489 79.5627 232.489 78.7903 231.992 78.7903H221.759C221.261 78.7903 221.261 79.5627 221.759 79.5627Z" fill="white"/>
<path d="M221.759 81.6627H231.992C232.489 81.6627 232.489 80.8902 231.992 80.8902H221.759C221.261 80.8902 221.261 81.6627 221.759 81.6627Z" fill="white"/>
<path d="M221.759 85.874H230.447C230.945 85.874 230.945 85.1015 230.447 85.1015H221.759C221.261 85.1015 221.261 85.874 221.759 85.874Z" fill="white"/>
<path d="M221.759 87.9739H233.536C234.034 87.9739 234.034 87.2014 233.536 87.2014H221.759C221.261 87.2014 221.261 87.9739 221.759 87.9739Z" fill="white"/>
<path d="M221.759 90.0795H231.992C232.489 90.0795 232.489 89.3071 231.992 89.3071H221.759C221.261 89.3071 221.261 90.0795 221.759 90.0795Z" fill="white"/>
<path d="M221.759 92.1795H231.992C232.489 92.1795 232.489 91.407 231.992 91.407H221.759C221.261 91.407 221.261 92.1795 221.759 92.1795Z" fill="white"/>
<path d="M221.759 83.7683H232.506C233.004 83.7683 233.004 82.9958 232.506 82.9958H221.759C221.261 82.9958 221.261 83.7683 221.759 83.7683Z" fill="white"/>
</g>
<path d="M215.295 77.6001L214.363 76.6674C213.722 77.3083 213.322 78.1952 213.322 79.1794H214.643C214.643 78.5614 214.895 78.0064 215.295 77.6001Z" fill="#B66DFF"/>
<path d="M216.868 81.4052C215.638 81.4052 214.637 80.4038 214.637 79.1736H213.316C213.316 81.1362 214.906 82.7269 216.868 82.7269V81.4052Z" fill="#B66DFF"/>
<path opacity="0.3" d="M216.868 81.4052C215.638 81.4052 214.637 80.4038 214.637 79.1736H213.316C213.316 81.1362 214.906 82.7269 216.868 82.7269V81.4052Z" fill="white"/>
<path d="M215.295 77.6001C215.701 77.1938 216.256 76.9478 216.874 76.9478V75.626C215.896 75.626 215.003 76.0209 214.363 76.6674L215.295 77.6001Z" fill="#B66DFF"/>
<path opacity="0.5" d="M215.295 77.6001C215.701 77.1938 216.256 76.9478 216.874 76.9478V75.626C215.896 75.626 215.003 76.0209 214.363 76.6674L215.295 77.6001Z" fill="black"/>
<path d="M219.099 79.1736C219.099 80.4038 218.098 81.4052 216.868 81.4052V82.7269C218.83 82.7269 220.42 81.1362 220.42 79.1736C220.42 77.211 218.83 75.6203 216.868 75.6203V76.9421C218.098 76.9421 219.099 77.9434 219.099 79.1736Z" fill="#B66DFF"/>
<path opacity="0.2" d="M218.447 80.7529L219.379 81.6855C220.02 81.0447 220.42 80.1578 220.42 79.1736H219.099C219.099 79.7916 218.847 80.3466 218.447 80.7529Z" fill="black"/>
<path d="M215.295 70.8941L214.363 71.8267C215.003 72.4676 215.89 72.8681 216.874 72.8681V71.5464C216.256 71.5464 215.701 71.2946 215.295 70.8941Z" fill="#B66DFF"/>
<path d="M219.099 69.3148C219.099 70.545 218.098 71.5464 216.868 71.5464V72.8681C218.83 72.8681 220.42 71.2774 220.42 69.3148H219.099Z" fill="#B66DFF"/>
<path opacity="0.3" d="M219.099 69.3148C219.099 70.545 218.098 71.5464 216.868 71.5464V72.8681C218.83 72.8681 220.42 71.2774 220.42 69.3148H219.099Z" fill="white"/>
<path d="M215.295 70.8941C214.889 70.4878 214.643 69.9328 214.643 69.3148H213.322C213.322 70.2933 213.716 71.1859 214.363 71.8267L215.295 70.8941Z" fill="#B66DFF"/>
<path opacity="0.5" d="M215.295 70.8941C214.889 70.4878 214.643 69.9328 214.643 69.3148H213.322C213.322 70.2933 213.716 71.1859 214.363 71.8267L215.295 70.8941Z" fill="black"/>
<path d="M216.868 67.0833C218.098 67.0833 219.099 68.0846 219.099 69.3148H220.42C220.42 67.3522 218.83 65.7615 216.868 65.7615C214.906 65.7615 213.316 67.3522 213.316 69.3148H214.637C214.637 68.0846 215.638 67.0833 216.868 67.0833Z" fill="#B66DFF"/>
<path opacity="0.2" d="M218.447 67.7413L219.379 66.8087C218.738 66.1678 217.852 65.7673 216.868 65.7673V67.089C217.486 67.089 218.041 67.3408 218.447 67.7413Z" fill="black"/>
<path d="M218.447 87.4589L219.379 86.5262C220.02 87.1671 220.42 88.054 220.42 89.0381H219.099C219.099 88.4202 218.847 87.8652 218.447 87.4589Z" fill="#B66DFF"/>
<path d="M216.868 91.2697C218.098 91.2697 219.099 90.2684 219.099 89.0381H220.42C220.42 91.0008 218.83 92.5914 216.868 92.5914V91.2697Z" fill="#B66DFF"/>
<path opacity="0.3" d="M216.868 91.2697C218.098 91.2697 219.099 90.2684 219.099 89.0381H220.42C220.42 91.0008 218.83 92.5914 216.868 92.5914V91.2697Z" fill="white"/>
<path d="M218.447 87.4589C218.041 87.0527 217.486 86.8066 216.868 86.8066V85.4849C217.846 85.4849 218.738 85.8797 219.379 86.5262L218.447 87.4589Z" fill="#B66DFF"/>
<path opacity="0.5" d="M218.447 87.4589C218.041 87.0527 217.486 86.8066 216.868 86.8066V85.4849C217.846 85.4849 218.738 85.8797 219.379 86.5262L218.447 87.4589Z" fill="black"/>
<path d="M214.643 89.0382C214.643 90.2684 215.644 91.2697 216.874 91.2697V92.5914C214.912 92.5914 213.322 91.0008 213.322 89.0382C213.322 87.0755 214.912 85.4849 216.874 85.4849V86.8066C215.644 86.8066 214.643 87.8079 214.643 89.0382Z" fill="#B66DFF"/>
<path opacity="0.2" d="M215.295 90.6117L214.363 91.5443C213.722 90.9035 213.322 90.0166 213.322 89.0324H214.643C214.643 89.6504 214.895 90.2054 215.295 90.6117Z" fill="black"/>
<path d="M150.116 126.9H163.952C164.788 126.9 165.468 127.581 165.468 128.416V129.257C165.468 130.093 164.788 130.774 163.952 130.774H150.116V126.9Z" fill="#263238"/>
<path d="M152.512 126.9H123.066C122.289 126.9 121.659 127.53 121.659 128.307V129.366C121.659 130.143 122.289 130.774 123.066 130.774H152.512C153.29 130.774 153.919 130.143 153.919 129.366V128.307C153.919 127.53 153.29 126.9 152.512 126.9Z" fill="black"/>
<path opacity="0.5" d="M152.512 126.9H123.066C122.289 126.9 121.659 127.53 121.659 128.307V129.366C121.659 130.143 122.289 130.774 123.066 130.774H152.512C153.29 130.774 153.919 130.143 153.919 129.366V128.307C153.919 127.53 153.29 126.9 152.512 126.9Z" fill="white"/>
<path d="M146.043 126.9H153.502L148.726 109.053H146.043V126.9Z" fill="#263238"/>
<path d="M152.415 126.9H137.189L135.673 109.053H147.639L152.415 126.9Z" fill="black"/>
<path opacity="0.3" d="M152.415 126.9H137.189L135.673 109.053H147.639L152.415 126.9Z" fill="white"/>
<path d="M190.768 57.7509H183.846L178.487 119.015H185.408C186.855 119.015 188.136 117.842 188.262 116.389L193.159 60.3716C193.284 58.9239 192.215 57.7452 190.762 57.7452L190.768 57.7509Z" fill="#263238"/>
<path d="M183.812 119.015H100.026C98.5784 119.015 97.5031 117.842 97.6289 116.389L102.525 60.3716C102.651 58.9239 103.927 57.7452 105.38 57.7452H189.166C190.613 57.7452 191.689 58.9182 191.563 60.3716L186.666 116.389C186.541 117.836 185.265 119.015 183.812 119.015Z" fill="#263238"/>
<path opacity="0.7" d="M183.812 119.015H100.026C98.5784 119.015 97.5031 117.842 97.6289 116.389L102.525 60.3716C102.651 58.9239 103.927 57.7452 105.38 57.7452H189.166C190.613 57.7452 191.689 58.9182 191.563 60.3716L186.666 116.389C186.541 117.836 185.265 119.015 183.812 119.015Z" fill="white"/>
<path opacity="0.9" d="M181.576 111.868H103.515C102.256 111.868 101.33 110.85 101.438 109.591L105.511 63.0494C105.62 61.7906 106.729 60.7721 107.988 60.7721H186.049C187.307 60.7721 188.234 61.7906 188.125 63.0494L184.052 109.591C183.944 110.85 182.834 111.868 181.576 111.868Z" fill="#FAFAFA"/>
<path d="M157.678 80.8044H154.228L154.835 73.9095H158.278L157.678 80.8044Z" fill="#B66DFF"/>
<path opacity="0.2" d="M157.678 80.8044H154.228L154.835 73.9095H158.278L157.678 80.8044Z" fill="black"/>
<path d="M164.57 80.8044H161.121L162.025 70.465H165.474L164.57 80.8044Z" fill="#B66DFF"/>
<path d="M171.457 80.8044H168.014L168.769 72.1873H172.212L171.457 80.8044Z" fill="#B66DFF"/>
<path d="M178.35 80.8044H174.906L176.113 67.0147H179.556L178.35 80.8044Z" fill="#B66DFF"/>
<path opacity="0.4" d="M178.35 80.8044H174.906L176.113 67.0147H179.556L178.35 80.8044Z" fill="black"/>
<path d="M181.799 80.1635H151.477C151.86 75.7806 152.244 71.3976 152.627 67.0147C152.695 66.1964 151.426 66.2022 151.357 67.0147C150.957 71.6093 150.55 76.204 150.15 80.8044C150.121 81.1477 150.465 81.4395 150.785 81.4395H181.799C182.617 81.4395 182.617 80.1693 181.799 80.1693V80.1635Z" fill="#B66DFF"/>
<path opacity="0.5" d="M181.799 80.1635H151.477C151.86 75.7806 152.244 71.3976 152.627 67.0147C152.695 66.1964 151.426 66.2022 151.357 67.0147C150.957 71.6093 150.55 76.204 150.15 80.8044C150.121 81.1477 150.465 81.4395 150.785 81.4395H181.799C182.617 81.4395 182.617 80.1693 181.799 80.1693V80.1635Z" fill="white"/>
<path d="M115.178 78.2696L113.09 80.1921C114.297 81.5139 116.053 82.3321 118.072 82.3321L118.312 79.6142C117.043 79.6142 115.939 79.0993 115.184 78.2696H115.178Z" fill="#B66DFF"/>
<path opacity="0.5" d="M115.178 78.2696L113.09 80.1921C114.297 81.5139 116.053 82.3321 118.072 82.3321L118.312 79.6142C117.043 79.6142 115.939 79.0993 115.184 78.2696H115.178Z" fill="black"/>
<path d="M123.306 75.0196C123.083 77.5601 120.846 79.6142 118.313 79.6142L118.072 82.3321C122.111 82.3321 125.668 79.0592 126.023 75.0196H123.306Z" fill="#B66DFF"/>
<path opacity="0.1" d="M123.306 75.0196C123.083 77.5601 120.846 79.6142 118.313 79.6142L118.072 82.3321C122.111 82.3321 125.668 79.0592 126.023 75.0196H123.306Z" fill="black"/>
<path d="M115.178 78.2696C114.417 77.4399 114.005 76.2898 114.114 75.0196H111.397C111.22 77.0394 111.877 78.8704 113.084 80.1921L115.172 78.2696H115.178Z" fill="#B66DFF"/>
<path d="M119.113 70.4249C121.653 70.4249 123.529 72.4848 123.306 75.0196H126.023C126.378 70.9799 123.392 67.707 119.354 67.707C115.315 67.707 111.757 70.9799 111.403 75.0196H114.12C114.343 72.479 116.579 70.4249 119.113 70.4249Z" fill="#B66DFF"/>
<path opacity="0.2" d="M119.113 70.4249C121.653 70.4249 123.529 72.4848 123.306 75.0196H126.023C126.378 70.9799 123.392 67.707 119.354 67.707C115.315 67.707 111.757 70.9799 111.403 75.0196H114.12C114.343 72.479 116.579 70.4249 119.113 70.4249Z" fill="white"/>
<path opacity="0.6" d="M122.242 71.7752L124.33 69.8527C123.123 68.5309 121.367 67.7127 119.348 67.7127L119.108 70.4306C120.377 70.4306 121.481 70.9456 122.236 71.7752H122.242Z" fill="white"/>
<path d="M135.547 78.2696L133.459 80.1921C134.666 81.5139 136.422 82.3321 138.441 82.3321L138.681 79.6142C137.411 79.6142 136.308 79.0993 135.552 78.2696H135.547Z" fill="#B66DFF"/>
<path opacity="0.5" d="M135.547 78.2696L133.459 80.1921C134.666 81.5139 136.422 82.3321 138.441 82.3321L138.681 79.6142C137.411 79.6142 136.308 79.0993 135.552 78.2696H135.547Z" fill="black"/>
<path d="M143.669 75.0196C143.446 77.5601 141.21 79.6142 138.676 79.6142L138.435 82.3321C142.474 82.3321 146.032 79.0592 146.386 75.0196H143.669Z" fill="#B66DFF"/>
<path opacity="0.1" d="M143.669 75.0196C143.446 77.5601 141.21 79.6142 138.676 79.6142L138.435 82.3321C142.474 82.3321 146.032 79.0592 146.386 75.0196H143.669Z" fill="black"/>
<path d="M135.547 78.2696C134.786 77.4399 134.374 76.2898 134.483 75.0196H131.766C131.589 77.0394 132.246 78.8704 133.453 80.1921L135.541 78.2696H135.547Z" fill="#B66DFF"/>
<path d="M139.476 70.4249C142.016 70.4249 143.892 72.4848 143.669 75.0196H146.386C146.741 70.9799 143.755 67.707 139.717 67.707C135.678 67.707 132.121 70.9799 131.766 75.0196H134.483C134.706 72.479 136.942 70.4249 139.476 70.4249Z" fill="#B66DFF"/>
<path opacity="0.2" d="M139.476 70.4249C142.016 70.4249 143.892 72.4848 143.669 75.0196H146.386C146.741 70.9799 143.755 67.707 139.717 67.707C135.678 67.707 132.121 70.9799 131.766 75.0196H134.483C134.706 72.479 136.942 70.4249 139.476 70.4249Z" fill="white"/>
<path opacity="0.6" d="M142.611 71.7752L144.699 69.8527C143.492 68.5309 141.736 67.7127 139.717 67.7127L139.476 70.4306C140.746 70.4306 141.85 70.9456 142.605 71.7752H142.611Z" fill="white"/>
<path d="M160.846 94.205H156.511L156.888 89.8736H161.224L160.846 94.205ZM157.535 93.2666H159.983L160.194 90.812H157.746L157.529 93.2666H157.535Z" fill="#B66DFF"/>
<path d="M160.269 100.802H155.933L156.31 96.4709H160.646L160.269 100.802ZM156.957 99.864H159.405L159.622 97.4093H157.174L156.962 99.864H156.957Z" fill="#B66DFF"/>
<path d="M159.697 107.4H155.361L155.738 103.068H160.074L159.697 107.4ZM156.385 106.461H158.833L159.05 104.007H156.602L156.385 106.461Z" fill="#B66DFF"/>
<path d="M163.855 93.1923C163.272 93.1923 162.837 92.7173 162.888 92.1337C162.94 91.5501 163.455 91.0752 164.038 91.0752H178.533C179.116 91.0752 179.551 91.5501 179.499 92.1337C179.448 92.7173 178.933 93.1923 178.35 93.1923H163.855Z" fill="#B66DFF"/>
<path opacity="0.7" d="M163.855 93.1923C163.272 93.1923 162.837 92.7173 162.888 92.1337C162.94 91.5501 163.455 91.0752 164.038 91.0752H178.533C179.116 91.0752 179.551 91.5501 179.499 92.1337C179.448 92.7173 178.933 93.1923 178.35 93.1923H163.855Z" fill="white"/>
<path d="M162.705 106.29C162.122 106.29 161.687 105.815 161.739 105.231C161.79 104.647 162.305 104.173 162.888 104.173H175.038C175.621 104.173 176.056 104.647 176.004 105.231C175.953 105.815 175.438 106.29 174.855 106.29H162.705Z" fill="#B66DFF"/>
<path opacity="0.4" d="M162.705 106.29C162.122 106.29 161.687 105.815 161.739 105.231C161.79 104.647 162.305 104.173 162.888 104.173H175.038C175.621 104.173 176.056 104.647 176.004 105.231C175.953 105.815 175.438 106.29 174.855 106.29H162.705Z" fill="white"/>
<path d="M163.283 99.6923C162.7 99.6923 162.265 99.2174 162.316 98.6337C162.368 98.0501 162.883 97.5752 163.466 97.5752H174.677C175.261 97.5752 175.695 98.0501 175.644 98.6337C175.593 99.2174 175.078 99.6923 174.494 99.6923H163.283Z" fill="#B66DFF"/>
<path opacity="0.2" d="M163.283 99.6923C162.7 99.6923 162.265 99.2174 162.316 98.6337C162.368 98.0501 162.883 97.5752 163.466 97.5752H174.677C175.261 97.5752 175.695 98.0501 175.644 98.6337C175.593 99.2174 175.078 99.6923 174.494 99.6923H163.283Z" fill="white"/>
<path d="M150.688 99.389C149.424 97.661 148.159 95.933 146.89 94.2107C146.609 93.8274 146.026 93.6443 145.66 94.0505C144.321 95.5268 142.977 97.003 141.639 98.4792C140.586 96.7455 139.528 95.0118 138.476 93.2781C138.207 92.8318 137.618 92.7745 137.246 93.1179C135.856 94.3938 134.5 95.7156 133.076 96.9515C132.653 96.7226 132.241 96.4537 131.829 96.2134C131.062 95.7614 130.302 95.3093 129.535 94.8573C129.152 94.6284 128.7 94.7886 128.46 95.1377C127.104 97.1003 125.754 99.0629 124.399 101.031C123.386 99.0686 122.379 97.106 121.367 95.1377C121.167 94.7543 120.652 94.6628 120.292 94.8573C119.645 95.2063 118.999 95.5554 118.353 95.8987C117.958 96.1104 116.625 96.7741 116.253 97.0717C115.95 96.7913 114.795 96.2019 114.566 96.0646C113.891 95.6641 113.21 95.2578 112.535 94.8573C111.666 94.3423 110.877 95.6984 111.746 96.2134C112.873 96.8828 114.881 98.7367 116.208 98.7367C117.409 98.7367 119.119 97.4607 120.383 96.6425C121.464 98.7425 122.545 100.848 123.626 102.948C123.912 103.509 124.667 103.4 124.982 102.948C126.446 100.825 127.905 98.7024 129.369 96.5853C130.508 97.2605 131.646 97.9299 132.784 98.6051C133.093 98.7882 133.476 98.7196 133.734 98.485L137.623 94.9031C138.693 96.6654 139.763 98.422 140.832 100.184C141.084 100.596 141.719 100.728 142.062 100.345C143.423 98.8454 144.785 97.3463 146.146 95.8415C147.204 97.2891 148.268 98.7367 149.326 100.184C149.916 100.991 151.277 100.207 150.682 99.3948L150.688 99.389Z" fill="#B66DFF"/>
<path d="M149.418 105.832H112.032C112.507 100.425 112.976 95.0232 113.45 89.6161C113.536 88.609 111.969 88.6147 111.883 89.6161C111.386 95.2807 110.894 100.951 110.396 106.616C110.362 107.039 110.785 107.4 111.18 107.4H149.418C150.43 107.4 150.43 105.832 149.418 105.832Z" fill="#B66DFF"/>
<path opacity="0.5" d="M149.418 105.832H112.032C112.507 100.425 112.976 95.0232 113.45 89.6161C113.536 88.609 111.969 88.6147 111.883 89.6161C111.386 95.2807 110.894 100.951 110.396 106.616C110.362 107.039 110.785 107.4 111.18 107.4H149.418C150.43 107.4 150.43 105.832 149.418 105.832Z" fill="white"/>
<path d="M207.287 134.676H89.6667V200.46H207.287V134.676Z" fill="#B66DFF"/>
<path d="M80.9838 200.466H91.9547L91.9547 134.682H80.9838L80.9838 200.466Z" fill="#B66DFF"/>
<path opacity="0.3" d="M80.9838 200.466H91.9547L91.9547 134.682H80.9838L80.9838 200.466Z" fill="white"/>
<path d="M199.119 134.676H78.6786V140.495H199.119V134.676Z" fill="#B66DFF"/>
<path opacity="0.6" d="M199.119 134.676H78.6786V140.495H199.119V134.676Z" fill="white"/>
<path d="M80.9838 134.676H76.3792V200.46H80.9838V134.676Z" fill="#B66DFF"/>
<path opacity="0.5" d="M80.9838 134.676H76.3792V200.46H80.9838V134.676Z" fill="white"/>
<path d="M202.334 200.466H213.305V134.682H202.334V200.466Z" fill="#B66DFF"/>
<path opacity="0.3" d="M202.334 200.466H213.305V134.682H202.334V200.466Z" fill="white"/>
<path d="M206.12 135.935H216.067V130.882H206.12V135.935Z" fill="#B66DFF"/>
<path opacity="0.3" d="M206.12 135.935H216.067V130.882H206.12V135.935Z" fill="white"/>
<path d="M194.589 143.642H144.899V200.466H194.589V143.642Z" fill="#B66DFF"/>
<path opacity="0.5" d="M194.589 143.642H144.899V200.466H194.589V143.642Z" fill="white"/>
<path d="M197.729 143.642H194.589V200.466H197.729V143.642Z" fill="#B66DFF"/>
<path opacity="0.2" d="M197.729 143.642H194.589V200.466H197.729V143.642Z" fill="white"/>
<path d="M191.448 162.307H148.039V175.45H191.448V162.307Z" fill="#B66DFF"/>
<path d="M191.448 146.738H148.039V159.881H191.448V146.738Z" fill="#B66DFF"/>
<path d="M191.448 177.876H148.039V191.019H191.448V177.876Z" fill="#B66DFF"/>
<g opacity="0.7">
<path d="M191.448 162.307H148.039V175.45H191.448V162.307Z" fill="white"/>
<path d="M191.448 146.738H148.039V159.881H191.448V146.738Z" fill="white"/>
<path d="M191.448 177.876H148.039V191.019H191.448V177.876Z" fill="white"/>
</g>
<path d="M202.334 134.676H197.729V200.46H202.334V134.676Z" fill="#B66DFF"/>
<path opacity="0.1" d="M207.287 134.676H89.6667V200.46H207.287V134.676Z" fill="white"/>
<path opacity="0.5" d="M202.334 134.676H197.729V200.46H202.334V134.676Z" fill="white"/>
<path d="M206.114 130.882H72.5925V135.935H206.114V130.882Z" fill="#B66DFF"/>
<path opacity="0.6" d="M206.114 130.882H72.5925V135.935H206.114V130.882Z" fill="white"/>
<path d="M169.867 151.882H168.362C167.573 151.882 166.932 152.522 166.932 153.312C166.932 154.102 167.573 154.743 168.362 154.743H169.867C170.656 154.743 171.297 154.102 171.297 153.312C171.297 152.522 170.656 151.882 169.867 151.882Z" fill="#B66DFF"/>
<path d="M169.867 167.451H168.362C167.573 167.451 166.932 168.092 166.932 168.881C166.932 169.671 167.573 170.312 168.362 170.312H169.867C170.656 170.312 171.297 169.671 171.297 168.881C171.297 168.092 170.656 167.451 169.867 167.451Z" fill="#B66DFF"/>
<path d="M169.867 183.02H168.362C167.573 183.02 166.932 183.661 166.932 184.45C166.932 185.24 167.573 185.881 168.362 185.881H169.867C170.656 185.881 171.297 185.24 171.297 184.45C171.297 183.661 170.656 183.02 169.867 183.02Z" fill="#B66DFF"/>
<path opacity="0.3" d="M169.792 153.312C169.792 154.102 169.152 154.743 168.362 154.743C167.573 154.743 166.932 154.102 166.932 153.312C166.932 152.522 167.573 151.882 168.362 151.882C169.152 151.882 169.792 152.522 169.792 153.312Z" fill="#FAFAFA"/>
<path opacity="0.3" d="M169.792 168.881C169.792 169.671 169.152 170.312 168.362 170.312C167.573 170.312 166.932 169.671 166.932 168.881C166.932 168.092 167.573 167.451 168.362 167.451C169.152 167.451 169.792 168.092 169.792 168.881Z" fill="#FAFAFA"/>
<path opacity="0.3" d="M169.792 184.45C169.792 185.24 169.152 185.881 168.362 185.881C167.573 185.881 166.932 185.24 166.932 184.45C166.932 183.661 167.573 183.02 168.362 183.02C169.152 183.02 169.792 183.661 169.792 184.45Z" fill="#FAFAFA"/>
</g>
</svg>
